<?xml version="1.0" encoding="utf-8" ?><svg xmlns="http://www.w3.org/2000/svg" xmlns:xlink="http://www.w3.org/1999/xlink" width="250" height="250" viewBox="0 0 250 250"><clipPath id="cl_4"><rect x="-3.0517578e-05" y="3.0517578e-05" width="249.99998" height="250.00002"/></clipPath><g clip-path="url(#cl_4)"><path fill="#FB8B66" transform="matrix(0.152161 0 0 0.152625 -3.05176e-05 3.05176e-05)" d="M1280.81 399.769C1294.69 412.329 1312.86 431.717 1326.77 445.623L1417.7 536.446L518.974 1435.05C503.925 1420.88 487.479 1403.64 472.72 1388.88L382.123 1298.39L1280.81 399.769Z"/><path fill="#FB8B66" transform="matrix(0.152161 0 0 0.152625 -3.05176e-05 3.05176e-05)" d="M1105.02 223.977C1119.24 237.006 1136.58 255.41 1150.47 269.311L1241.87 360.59L343.168 1259.28C297.559 1214.77 251.563 1167.75 206.399 1122.6L1105.02 223.977Z"/><path fill="#FB8B66" transform="matrix(0.152161 0 0 0.152625 -3.05176e-05 3.05176e-05)" d="M1347.02 16.299C1411.81 10.4825 1440.46 51.3668 1481.47 92.3423L1586.11 197.029C1616.05 227.194 1624.24 244.052 1624.35 286.428C1624.49 341.437 1585.3 368.728 1549.17 404.866L1456.67 497.274L1440.64 481.338L1144.1 184.764L1240.33 88.5747C1275.27 53.6375 1295.08 24.4344 1347.02 16.299Z"/><path fill="#FB8B66" transform="matrix(0.152161 0 0 0.152625 -3.05176e-05 3.05176e-05)" d="M167.267 1161.69C177.653 1171.04 191.706 1186 201.818 1196.12L270.827 1265.14L479.87 1474.14C412.125 1496.21 338.967 1517.16 270.441 1537.91L121.628 1583.24C94.7161 1591.43 57.4521 1603.98 30.7469 1610.4L167.267 1161.69Z"/></g></svg>