<?xml version="1.0" encoding="utf-8" ?><svg xmlns="http://www.w3.org/2000/svg" xmlns:xlink="http://www.w3.org/1999/xlink" width="76" height="122" viewBox="0 0 76 122"><clipPath id="cl_3"><rect x="9.5367432e-07" y="9.5367432e-07" width="76" height="122"/></clipPath><g clip-path="url(#cl_3)"><path transform="matrix(0.0715631 0 0 0.0718492 -15.4576 2.44287)" d="M396.406 2.44933C400.974 4.99043 443.085 46.4237 449.51 52.6461L576.87 175.651L1002.74 586.258L1150.33 728.558C1172.5 749.973 1207.43 786.234 1230.49 804.834C1183.31 851.321 1133.45 898.19 1085.57 944.205L861.029 1161.03L547.191 1463.96C497.887 1511.45 449.336 1559.32 399.462 1606.24L396.985 1607C392.197 1605.12 289.887 1505.93 282.156 1496.83C289.197 1488.46 302.42 1476.33 310.482 1468.55L359.773 1421.11L517.69 1269.1L837.228 960.701C890.458 909.394 944.31 855.46 998.515 805.317C940.678 752.533 881.327 692.243 824.38 637.719L280.701 113.195C306.32 90.8052 330.446 66.2281 355.224 42.8988C369.225 29.7162 383.076 16.3108 396.406 2.44933Z"/></g></svg>